<svg width="935" height="762" viewBox="0 0 935 762" fill="none" xmlns="http://www.w3.org/2000/svg">
<path d="M361.046 81.5C360.976 101.53 356.254 118.8 349.914 135.67C344.394 150.36 340.404 165.49 340.244 181.25C340.114 194.33 343.614 206.43 351.754 217.15C359.274 227.05 368.694 234.66 379.124 240.98C383.144 243.42 384.434 246.63 384.844 250.56C385.354 255.38 385.604 260.27 385.524 265.12C385.414 271.91 384.834 278.7 384.564 285.49C384.464 287.95 383.124 288.84 380.954 289.08C374.954 289.74 369.434 291.82 364.194 294.77C355.224 299.83 349.424 307.41 346.234 317.1C344.014 323.85 342.904 330.73 344.374 337.78C345.663 343.94 347.864 349.79 351.724 354.86C355.324 359.58 355.124 359.38 351.424 364.02C343.644 373.77 334.714 382.31 325.094 390.19C323.784 391.26 323.034 391.28 321.784 390.21C315.584 384.92 308.174 381.94 300.334 380.51C296.514 379.81 292.324 380.56 288.404 381.24C284.864 381.85 281.324 382.94 278.034 384.39C264.964 390.19 257.484 400.51 254.774 414.37C253.694 419.91 253.904 420.49 248.374 420.74C238.884 421.16 229.354 420.9 219.834 420.77C216.804 420.73 213.784 420.17 210.754 419.88C209.304 419.74 208.854 419.01 208.574 417.55C206.004 403.87 199.484 392.92 186.704 386.37C182.244 384.08 177.904 381.5 172.574 381.99C172.114 382.03 171.594 381.5 171.104 381.24C171.454 380.88 171.754 380.32 172.174 380.2C178.634 378.29 185.124 376.47 191.584 374.56C198.304 372.58 204.994 370.46 211.734 368.53C215.094 367.57 218.574 367.06 221.924 366.07C229.594 363.78 237.324 361.6 244.834 358.84C251.014 356.57 257.064 353.82 262.884 350.74C271.684 346.08 279.124 339.77 284.434 331.16C289.493 322.96 290.654 313.95 290.124 304.58C289.954 301.54 290.154 298.37 289.334 295.5C287.924 290.59 286.294 285.64 283.964 281.11C279.394 272.22 272.184 265.92 262.804 262.34C254.384 259.13 245.904 257.7 236.874 260.5C223.984 264.49 214.524 272.21 209.394 284.66C207.174 290.04 205.664 295.79 206.054 301.82C206.114 302.72 205.664 303.65 205.454 304.56C204.724 304.11 203.854 303.78 203.274 303.18C192.294 291.78 183.244 279.25 178.994 263.65C176.404 254.16 176.294 244.66 177.724 235.08C179.764 221.45 185.514 209.21 192.364 197.46C198.904 186.24 206.084 175.38 212.384 164.03C217.834 154.21 222.884 144.11 227.294 133.79C230.474 126.36 232.914 118.48 234.644 110.57C237.084 99.45 237.624 88.2 235.394 76.78C234.174 70.53 233.384 64.25 230.864 58.34C230.744 58.06 230.864 57.69 230.874 57.36C231.234 57.51 231.624 57.62 231.934 57.83C238.624 62.28 245.114 66.94 250.854 72.66C257.074 78.86 262.154 85.95 265.894 93.71C274.484 111.56 275.764 130.24 269.944 149.26C268.844 152.85 267.444 156.34 266.214 159.89C265.984 160.57 265.904 161.3 265.754 162.01C266.444 161.65 267.234 161.41 267.804 160.9C272.104 157.1 276.414 153.3 280.624 149.39C291.594 139.19 301.474 127.97 310.224 115.86C318.494 104.41 326.114 92.47 330.844 79C333.133 72.49 336.046 60 336.046 60C341.046 38.5 332.823 0.109985 332.823 0.109985C332.823 0.109985 346.546 15.5 354.154 45.14C361.761 74.78 361.046 81.5 361.046 81.5Z" fill="url(#paint0_linear_219_10)"/>
<path d="M202.804 65.52C203.254 54.26 200.324 43.28 197.124 32.56C193.964 21.97 189.964 11.75 184.014 2.37C183.744 1.95 183.494 1.49999 183.284 1.03999C183.134 0.709993 183.054 0.35 182.944 0C183.264 0.22 183.654 0.370004 183.884 0.660004C187.544 5.04 191.524 9.21 194.754 13.89C200.004 21.49 205.174 29.21 209.594 37.31C212.904 43.37 215.234 50.02 217.574 56.56C221.244 66.84 222.724 77.53 222.614 88.44C222.484 100.71 220.314 112.57 216.084 124.11C210.794 138.53 203.424 151.85 195.154 164.72C187.304 176.94 179.134 188.97 171.854 201.52C165.784 211.98 160.334 222.87 155.464 233.94C150.674 244.84 148.084 256.57 148.044 268.48C148.024 275.32 149.924 282.19 151.154 289.01C152.434 296.14 155.534 302.58 159.184 308.76C165.994 320.31 175.004 329.81 186.384 336.92C190.654 339.59 195.204 341.95 199.874 343.84C203.894 345.46 208.234 346.34 212.484 347.3C216.214 348.14 219.994 348.79 223.794 349.24C226.474 349.56 233.474 350.44 233.474 350.44C233.474 350.44 227.224 351.33 225.154 351.94C218.604 353.88 212.154 356.17 205.614 358.13C201.674 359.31 197.584 360.02 193.624 361.17C186.234 363.32 178.914 365.73 171.524 367.86C162.684 370.4 154.404 374.21 146.624 379.01C142.834 381.35 139.434 384.38 136.134 387.4C134.574 388.83 133.534 388.99 132.084 387.62C126.514 382.39 120.834 377.26 115.384 371.9C112.744 369.3 110.514 366.28 108.094 363.45C106.594 361.7 106.244 360.04 108.014 358.13C112.584 353.17 115.004 346.94 116.184 340.6C117.254 334.85 117.224 328.84 115.704 322.86C113.234 313.15 108.144 305.39 100.334 299.29C96.0938 295.97 91.3138 293.72 86.0838 292.5C83.6538 291.94 81.1538 291.72 78.7138 291.18C78.0838 291.04 77.2638 290.42 77.0738 289.84C76.5038 288.12 75.9738 286.33 75.8238 284.54C74.8338 272.79 74.6438 261.03 76.1138 249.31C76.6038 245.41 77.0838 244.96 81.8438 244.49C91.5938 243.52 99.0538 238.66 105.714 231.74C112.134 225.07 115.174 216.97 116.264 208.23C117.504 198.37 114.424 189.27 109.064 180.96C104.804 174.37 102.194 167.14 100.144 159.6C98.0738 152.01 97.9638 144.3 98.4438 136.66C98.9638 128.45 101.154 120.48 104.774 112.94C108.924 104.28 114.274 96.62 121.984 90.8C125.924 87.82 130.414 85.91 135.244 84.83C135.634 84.74 136.5 84.5 137 84.5C134.35 87.08 129.844 91.66 127.624 94.56C120.114 104.38 117.044 115.6 119.984 127.68C121.674 134.66 124.944 141.28 129.454 147.06C132.484 150.94 135.614 154.73 138.844 158.44C140.334 160.16 141.934 160.68 144.314 159.11C155.694 151.59 166.004 142.86 175.284 132.88C182.674 124.92 188.824 116.06 193.214 106.16C195.844 100.22 197.944 93.94 199.394 87.61C201.054 80.37 201.714 72.89 202.804 65.52Z" fill="url(#paint1_linear_219_10)"/>
<path d="M290.7 389.828L283.068 367.757C282.839 367.095 282.018 366.868 281.481 367.317L239.084 402.804C238.994 402.88 238.891 402.939 238.781 402.979L121.896 445.001C121.75 445.053 121.619 445.138 121.512 445.25L45.9452 524.137C45.7666 524.323 45.667 524.571 45.6673 524.829L45.816 676.686C45.817 677.767 47.2946 678.077 47.7309 677.088L84.6738 593.34C84.8032 593.047 85.0652 592.834 85.3785 592.766L179.17 572.595L309.923 545.561C310.122 545.52 310.304 545.419 310.444 545.273L378.191 474.381C378.274 474.294 378.341 474.193 378.388 474.083L409.543 401.217C409.865 400.463 409.194 399.663 408.396 399.85L381.957 406.036C381.702 406.096 381.481 406.253 381.341 406.474L349.366 456.829C349.314 456.911 349.25 456.985 349.177 457.048L286.967 511.016C286.745 511.209 286.45 511.294 286.16 511.25L224.101 501.749C223.604 501.673 223.24 501.239 223.253 500.736L224.319 457.243C224.327 456.931 224.479 456.641 224.732 456.458L262.342 429.18C262.427 429.119 262.501 429.045 262.562 428.961L290.562 390.746C290.756 390.481 290.807 390.138 290.7 389.828Z" fill="#EBEBEB"/>
<path d="M429.491 401.125H448.756V472.225L519.856 401.125H547.165L486.491 459.912L548.853 547H523.133L472.092 473.814L448.756 496.157V547H429.491V401.125ZM632.962 467.955C642.23 467.955 649.545 466.102 654.908 462.394C660.336 458.687 663.051 452.001 663.051 442.335C663.051 431.942 659.277 424.858 651.73 421.084C647.692 419.098 642.296 418.105 635.544 418.105H587.283V467.955H632.962ZM567.522 401.125H635.047C646.169 401.125 655.338 402.747 662.554 405.991C676.258 412.213 683.11 423.699 683.11 440.448C683.11 449.187 681.289 456.337 677.648 461.898C674.073 467.459 669.042 471.927 662.554 475.304C668.247 477.621 672.517 480.666 675.364 484.439C678.277 488.213 679.899 494.337 680.23 502.81L680.925 522.373C681.124 527.934 681.587 532.072 682.315 534.786C683.507 539.42 685.625 542.399 688.671 543.723V547H664.441C663.779 545.742 663.249 544.12 662.852 542.134C662.455 540.148 662.124 536.308 661.859 530.615L660.667 506.286C660.204 496.753 656.662 490.364 650.042 487.121C646.268 485.333 640.343 484.439 632.267 484.439H587.283V547H567.522V401.125ZM716.575 401.125H736.534V547H716.575V401.125ZM874.863 401.125V418.503H825.708V547H805.649V418.503H756.494V401.125H874.863ZM897.504 401.125H917.463V547H897.504V401.125Z" fill="#EBEBEB"/>
<defs>
<linearGradient id="paint0_linear_219_10" x1="278.321" y1="0.109985" x2="278.321" y2="420.969" gradientUnits="userSpaceOnUse">
<stop stop-color="#02F5EF"/>
<stop offset="0.5" stop-color="#2EA0E8"/>
<stop offset="0.75" stop-color="#5C59D8"/>
<stop offset="1" stop-color="#6156D9"/>
</linearGradient>
<linearGradient id="paint1_linear_219_10" x1="154.26" y1="0" x2="154.26" y2="388.565" gradientUnits="userSpaceOnUse">
<stop stop-color="#02F5EF"/>
<stop offset="0.5" stop-color="#2EA0E8"/>
<stop offset="0.75" stop-color="#5C59D8"/>
<stop offset="1" stop-color="#6156D9"/>
</linearGradient>
</defs>
</svg>
